<svg width="1440" height="8201" viewBox="0 0 1440 8201" fill="none" xmlns="http://www.w3.org/2000/svg">
<mask id="mask0_1338_760" style="mask-type:luminance" maskUnits="userSpaceOnUse" x="0" y="0" width="1440" height="8201">
<path d="M1440 0H0V8201H1440V0Z" fill="white"/>
</mask>
<g mask="url(#mask0_1338_760)">
<mask id="mask1_1338_760" style="mask-type:luminance" maskUnits="userSpaceOnUse" x="131" y="0" width="7" height="8201">
<path d="M131.699 0H137.58V8200.37H131.699V0Z" fill="white"/>
</mask>
<g mask="url(#mask1_1338_760)">
<path d="M136.631 8200.37H132.189V0H136.631V8200.37Z" fill="#FAB31E" fill-opacity="0.05"/>
</g>
<mask id="mask2_1338_760" style="mask-type:luminance" maskUnits="userSpaceOnUse" x="261" y="0" width="7" height="8201">
<path d="M261.875 0H267.197V8200.37H261.875V0Z" fill="white"/>
</mask>
<g mask="url(#mask2_1338_760)">
<path d="M266.829 8200.37H262.403V0H266.829V8200.37Z" fill="#FAB31E" fill-opacity="0.05"/>
</g>
<mask id="mask3_1338_760" style="mask-type:luminance" maskUnits="userSpaceOnUse" x="391" y="0" width="7" height="8201">
<path d="M391.491 0H397.724V8200.37H391.491V0Z" fill="white"/>
</mask>
<g mask="url(#mask3_1338_760)">
<path d="M395.986 8200.37H391.552V0H395.986V8200.37Z" fill="#FAB31E" fill-opacity="0.05"/>
</g>
<mask id="mask4_1338_760" style="mask-type:luminance" maskUnits="userSpaceOnUse" x="522" y="0" width="5" height="8201">
<path d="M522.019 0H526.797V8200.37H522.019V0Z" fill="white"/>
</mask>
<g mask="url(#mask4_1338_760)">
<path d="M526.759 8200.37H522.325V0H526.759V8200.37Z" fill="#FAB31E" fill-opacity="0.05"/>
</g>
<mask id="mask5_1338_760" style="mask-type:luminance" maskUnits="userSpaceOnUse" x="651" y="0" width="6" height="8201">
<path d="M651.091 0H656.911V8200.37H651.091V0Z" fill="white"/>
</mask>
<g mask="url(#mask5_1338_760)">
<path d="M656.428 8200.37H651.995V0H656.428V8200.37Z" fill="#FAB31E" fill-opacity="0.05"/>
</g>
<mask id="mask6_1338_760" style="mask-type:luminance" maskUnits="userSpaceOnUse" x="781" y="0" width="8" height="8201">
<path d="M781.205 0H788.066V8200.37H781.205V0Z" fill="white"/>
</mask>
<g mask="url(#mask6_1338_760)">
<path d="M787.139 8200.37H782.706V0H787.139V8200.37Z" fill="#FAB31E" fill-opacity="0.05"/>
</g>
<mask id="mask7_1338_760" style="mask-type:luminance" maskUnits="userSpaceOnUse" x="912" y="0" width="7" height="8201">
<path d="M912.361 0H918.242V8200.37H912.361V0Z" fill="white"/>
</mask>
<g mask="url(#mask7_1338_760)">
<path d="M916.932 8200.37H912.499V0H916.932V8200.37Z" fill="#FAB31E" fill-opacity="0.05"/>
</g>
<mask id="mask8_1338_760" style="mask-type:luminance" maskUnits="userSpaceOnUse" x="1042" y="0" width="7" height="8201">
<path d="M1042.54 0H1048.42V8200.37H1042.54V0Z" fill="white"/>
</mask>
<g mask="url(#mask8_1338_760)">
<path d="M1047.69 8200.37H1043.25V0H1047.69V8200.37Z" fill="#FAB31E" fill-opacity="0.05"/>
</g>
<mask id="mask9_1338_760" style="mask-type:luminance" maskUnits="userSpaceOnUse" x="1172" y="0" width="7" height="8201">
<path d="M1172.71 0H1178.59V8200.37H1172.71V0Z" fill="white"/>
</mask>
<g mask="url(#mask9_1338_760)">
<path d="M1178.46 8200.37H1174.02V0H1178.46V8200.37Z" fill="#FAB31E" fill-opacity="0.05"/>
</g>
<mask id="mask10_1338_760" style="mask-type:luminance" maskUnits="userSpaceOnUse" x="1302" y="0" width="8" height="8201">
<path d="M1302.89 0H1309.82V8200.37H1302.89V0Z" fill="white"/>
</mask>
<g mask="url(#mask10_1338_760)">
<path d="M1308.33 8200.37H1303.89V0H1308.33V8200.37Z" fill="#FAB31E" fill-opacity="0.05"/>
</g>
<mask id="mask11_1338_760" style="mask-type:luminance" maskUnits="userSpaceOnUse" x="0" y="8064" width="1440" height="4">
<path d="M0 8064H1440V8068H0V8064Z" fill="white"/>
</mask>
<g mask="url(#mask11_1338_760)">
<path d="M1508.07 8067.59H-0.439453V8064.39H1508.07V8067.59Z" fill="#FAB31E" fill-opacity="0.05"/>
</g>
<mask id="mask12_1338_760" style="mask-type:luminance" maskUnits="userSpaceOnUse" x="0" y="4536" width="1440" height="4">
<path d="M0 4536H1440V4540H0V4536Z" fill="white"/>
</mask>
<g mask="url(#mask12_1338_760)">
<path d="M1508.07 4539.59H-0.439453V4536.39H1508.07V4539.59Z" fill="#FAB31E" fill-opacity="0.05"/>
</g>
<mask id="mask13_1338_760" style="mask-type:luminance" maskUnits="userSpaceOnUse" x="0" y="0" width="1440" height="4">
<path d="M0 0H1440V4H0V0Z" fill="white"/>
</mask>
<g mask="url(#mask13_1338_760)">
<path d="M1508.07 3.59355H-0.439453V0.393555H1508.07V3.59355Z" fill="#FAB31E" fill-opacity="0.05"/>
</g>
<mask id="mask14_1338_760" style="mask-type:luminance" maskUnits="userSpaceOnUse" x="0" y="0" width="1440" height="4">
<path d="M0 0H1440V4H0V0Z" fill="white"/>
</mask>
<g mask="url(#mask14_1338_760)">
<path d="M1508.07 3.59355H-0.439453V0.393555H1508.07V3.59355Z" fill="#FAB31E" fill-opacity="0.05"/>
</g>
<mask id="mask15_1338_760" style="mask-type:luminance" maskUnits="userSpaceOnUse" x="0" y="7560" width="1440" height="4">
<path d="M0 7560H1440V7564H0V7560Z" fill="white"/>
</mask>
<g mask="url(#mask15_1338_760)">
<path d="M1508.07 7563.43H-0.439453V7560.23H1508.07V7563.43Z" fill="#FAB31E" fill-opacity="0.05"/>
</g>
<mask id="mask16_1338_760" style="mask-type:luminance" maskUnits="userSpaceOnUse" x="0" y="7056" width="1440" height="4">
<path d="M0 7056H1440V7060H0V7056Z" fill="white"/>
</mask>
<g mask="url(#mask16_1338_760)">
<path d="M1508.07 7059.92H-0.439453V7056.72H1508.07V7059.92Z" fill="#FAB31E" fill-opacity="0.05"/>
</g>
<mask id="mask17_1338_760" style="mask-type:luminance" maskUnits="userSpaceOnUse" x="0" y="6552" width="1440" height="4">
<path d="M0 6552H1440V6556H0V6552Z" fill="white"/>
</mask>
<g mask="url(#mask17_1338_760)">
<path d="M1508.07 6556.03H-0.439453V6552.83H1508.07V6556.03Z" fill="#FAB31E" fill-opacity="0.05"/>
</g>
<mask id="mask18_1338_760" style="mask-type:luminance" maskUnits="userSpaceOnUse" x="0" y="6048" width="1440" height="4">
<path d="M0 6048H1440V6052H0V6048Z" fill="white"/>
</mask>
<g mask="url(#mask18_1338_760)">
<path d="M1508.07 6051.6H-0.439453V6048.4H1508.07V6051.6Z" fill="#FAB31E" fill-opacity="0.05"/>
</g>
<mask id="mask19_1338_760" style="mask-type:luminance" maskUnits="userSpaceOnUse" x="0" y="5544" width="1440" height="4">
<path d="M0 5544H1440V5548H0V5544Z" fill="white"/>
</mask>
<g mask="url(#mask19_1338_760)">
<path d="M1508.07 5548.25H-0.439453V5545.05H1508.07V5548.25Z" fill="#FAB31E" fill-opacity="0.05"/>
</g>
<mask id="mask20_1338_760" style="mask-type:luminance" maskUnits="userSpaceOnUse" x="0" y="5040" width="1440" height="4">
<path d="M0 5040H1440V5044H0V5040Z" fill="white"/>
</mask>
<g mask="url(#mask20_1338_760)">
<path d="M1508.07 5044.07H-0.439453V5040.87H1508.07V5044.07Z" fill="#FAB31E" fill-opacity="0.05"/>
</g>
<mask id="mask21_1338_760" style="mask-type:luminance" maskUnits="userSpaceOnUse" x="0" y="4032" width="1440" height="4">
<path d="M0 4032H1440V4036H0V4032Z" fill="white"/>
</mask>
<g mask="url(#mask21_1338_760)">
<path d="M1508.07 4035.85H-0.439453V4032.65H1508.07V4035.85Z" fill="#FAB31E" fill-opacity="0.05"/>
</g>
<mask id="mask22_1338_760" style="mask-type:luminance" maskUnits="userSpaceOnUse" x="0" y="3024" width="1440" height="4">
<path d="M0 3024H1440V3028H0V3024Z" fill="white"/>
</mask>
<g mask="url(#mask22_1338_760)">
<path d="M1508.07 3027.29H-0.439453V3024.09H1508.07V3027.29Z" fill="#FAB31E" fill-opacity="0.05"/>
</g>
<mask id="mask23_1338_760" style="mask-type:luminance" maskUnits="userSpaceOnUse" x="0" y="3528" width="1440" height="4">
<path d="M0 3528H1440V3532H0V3528Z" fill="white"/>
</mask>
<g mask="url(#mask23_1338_760)">
<path d="M1508.07 3531.29H-0.439453V3528.09H1508.07V3531.29Z" fill="#FAB31E" fill-opacity="0.05"/>
</g>
<mask id="mask24_1338_760" style="mask-type:luminance" maskUnits="userSpaceOnUse" x="0" y="2016" width="1440" height="4">
<path d="M0 2016H1440V2020H0V2016Z" fill="white"/>
</mask>
<g mask="url(#mask24_1338_760)">
<path d="M1508.07 2019.51H-0.439453V2016.31H1508.07V2019.51Z" fill="#FAB31E" fill-opacity="0.05"/>
</g>
<mask id="mask25_1338_760" style="mask-type:luminance" maskUnits="userSpaceOnUse" x="0" y="2520" width="1440" height="4">
<path d="M0 2520H1440V2524H0V2520Z" fill="white"/>
</mask>
<g mask="url(#mask25_1338_760)">
<path d="M1508.07 2523.51H-0.439453V2520.31H1508.07V2523.51Z" fill="#FAB31E" fill-opacity="0.05"/>
</g>
<mask id="mask26_1338_760" style="mask-type:luminance" maskUnits="userSpaceOnUse" x="0" y="1008" width="1440" height="4">
<path d="M0 1008H1440V1012H0V1008Z" fill="white"/>
</mask>
<g mask="url(#mask26_1338_760)">
<path d="M1508.07 1011.81H-0.439453V1008.61H1508.07V1011.81Z" fill="#FAB31E" fill-opacity="0.05"/>
</g>
<mask id="mask27_1338_760" style="mask-type:luminance" maskUnits="userSpaceOnUse" x="0" y="1512" width="1440" height="4">
<path d="M0 1512H1440V1516H0V1512Z" fill="white"/>
</mask>
<g mask="url(#mask27_1338_760)">
<path d="M1508.07 1515.81H-0.439453V1512.61H1508.07V1515.81Z" fill="#FAB31E" fill-opacity="0.05"/>
</g>
<mask id="mask28_1338_760" style="mask-type:luminance" maskUnits="userSpaceOnUse" x="0" y="504" width="1440" height="4">
<path d="M0 504H1440V508H0V504Z" fill="white"/>
</mask>
<g mask="url(#mask28_1338_760)">
<path d="M1508.07 507.815H-0.439453V504.615H1508.07V507.815Z" fill="#FAB31E" fill-opacity="0.05"/>
</g>
<mask id="mask29_1338_760" style="mask-type:luminance" maskUnits="userSpaceOnUse" x="0" y="0" width="1440" height="4">
<path d="M0 0H1440V4H0V0Z" fill="white"/>
</mask>
<g mask="url(#mask29_1338_760)">
<path d="M1508.07 3.38335H-0.439453V0.18335H1508.07V3.38335Z" fill="#FAB31E" fill-opacity="0.05"/>
</g>
</g>
</svg>
